# xmcd CD database file
#
# Track frame offsets:
#	150
#	17085
#	34255
#	51280
#	67762
#	83760
#	99910
#	121180
#	139407
#	157400
#
# Disc length: 2371 seconds
#
# Revision: 0
# Processed by: cddbd v1.5.1PL0 Copyright (c) Steve Scherf et al.
# Submitted via: CDex 1.51
#
DISCID=8109410a
DTITLE=ATTACK HAUS - W8
DYEAR=2005
DGENRE=Rock
TTITLE0=AttAboy
TTITLE1=RaggA Meta
TTITLE2=東京-triAl
TTITLE3=DiviNe nAtion
TTITLE4=罵詈-bAlI
TTITLE5=Cutter
TTITLE6=GrAss Sun
TTITLE7=The Splendid World
TTITLE8=[ Nya ]
TTITLE9=空蝉-Utsusemi
EXTD=YEAR: 2005
EXTT0=
EXTT1=
EXTT2=
EXTT3=
EXTT4=
EXTT5=
EXTT6=
EXTT7=
EXTT8=
EXTT9=
PLAYORDER=
